<?xml version="1.0" encoding="UTF-8"?>
<svg xmlns="http://www.w3.org/2000/svg" width="96" height="56" viewBox="0 0 96 56" fill="none">
  <path d="M10.92 21C12.712 21 14.294 21.364 15.666 22.092C17.066 22.792 18.158 23.674 18.942 24.738V21.378H23.772V44.898C23.772 47.026 23.324 48.916 22.428 50.568C21.532 52.248 20.23 53.564 18.522 54.516C16.842 55.468 14.826 55.944 12.474 55.944C9.338 55.944 6.734 55.202 4.662 53.718C2.59 52.262 1.414 50.274 1.134 47.754H5.88C6.244 48.958 7.014 49.924 8.19 50.652C9.394 51.408 10.822 51.786 12.474 51.786C14.406 51.786 15.96 51.198 17.136 50.022C18.34 48.846 18.942 47.138 18.942 44.898V41.034C18.13 42.126 17.024 43.05 15.624 43.806C14.252 44.534 12.684 44.898 10.92 44.898C8.904 44.898 7.056 44.394 5.376 43.386C3.724 42.35 2.408 40.922 1.428 39.102C0.476 37.254 0 35.168 0 32.844C0 30.52 0.476 28.462 1.428 26.67C2.408 24.878 3.724 23.492 5.376 22.512C7.056 21.504 8.904 21 10.92 21ZM18.942 32.928C18.942 31.332 18.606 29.946 17.934 28.77C17.29 27.594 16.436 26.698 15.372 26.082C14.308 25.466 13.16 25.158 11.928 25.158C10.696 25.158 9.548 25.466 8.484 26.082C7.42 26.67 6.552 27.552 5.88 28.728C5.236 29.876 4.914 31.248 4.914 32.844C4.914 34.44 5.236 35.84 5.88 37.044C6.552 38.248 7.42 39.172 8.484 39.816C9.576 40.432 10.724 40.74 11.928 40.74C13.16 40.74 14.308 40.432 15.372 39.816C16.436 39.2 17.29 38.304 17.934 37.128C18.606 35.924 18.942 34.524 18.942 32.928Z" fill="#5CBDE3"></path>
  <path d="M49.7588 21.378V44.52H44.9708V41.79C44.2148 42.742 43.2208 43.498 41.9888 44.058C40.7848 44.59 39.4968 44.856 38.1248 44.856C36.3048 44.856 34.6668 44.478 33.2108 43.722C31.7828 42.966 30.6488 41.846 29.8088 40.362C28.9968 38.878 28.5908 37.086 28.5908 34.986V21.378H33.3368V34.272C33.3368 36.344 33.8548 37.94 34.8908 39.06C35.9268 40.152 37.3408 40.698 39.1328 40.698C40.9248 40.698 42.3388 40.152 43.3748 39.06C44.4388 37.94 44.9708 36.344 44.9708 34.272V21.378H49.7588Z" fill="#5CBDE3"></path>
  <path d="M75.6482 21.378L61.4522 55.398H56.4962L61.2002 44.142L52.0862 21.378H57.4202L63.9302 39.018L70.6922 21.378H75.6482Z" fill="#5CBDE3"></path>
  <path d="M86.4016 44.898C84.5816 44.898 82.9435 44.576 81.4875 43.932C80.0595 43.26 78.9255 42.364 78.0855 41.244C77.2455 40.096 76.7975 38.822 76.7415 37.422H81.6975C81.7815 38.402 82.2435 39.228 83.0835 39.9C83.9515 40.544 85.0296 40.866 86.3176 40.866C87.6616 40.866 88.6975 40.614 89.4255 40.11C90.1815 39.578 90.5595 38.906 90.5595 38.094C90.5595 37.226 90.1395 36.582 89.2995 36.162C88.4875 35.742 87.1855 35.28 85.3935 34.776C83.6575 34.3 82.2436 33.838 81.1516 33.39C80.0596 32.942 79.1075 32.256 78.2955 31.332C77.5115 30.408 77.1195 29.19 77.1195 27.678C77.1195 26.446 77.4835 25.326 78.2115 24.318C78.9395 23.282 79.9755 22.47 81.3195 21.882C82.6915 21.294 84.2595 21 86.0235 21C88.6555 21 90.7695 21.672 92.3655 23.016C93.9895 24.332 94.8576 26.138 94.9696 28.434H90.1815C90.0975 27.398 89.6775 26.572 88.9215 25.956C88.1655 25.34 87.1435 25.032 85.8555 25.032C84.5955 25.032 83.6296 25.27 82.9576 25.746C82.2856 26.222 81.9495 26.852 81.9495 27.636C81.9495 28.252 82.1735 28.77 82.6215 29.19C83.0695 29.61 83.6155 29.946 84.2595 30.198C84.9035 30.422 85.8555 30.716 87.1155 31.08C88.7955 31.528 90.1675 31.99 91.2315 32.466C92.3235 32.914 93.2615 33.586 94.0455 34.482C94.8295 35.378 95.2355 36.568 95.2635 38.052C95.2635 39.368 94.8995 40.544 94.1715 41.58C93.4435 42.616 92.4075 43.428 91.0635 44.016C89.7475 44.604 88.1936 44.898 86.4016 44.898Z" fill="#5CBDE3"></path>
  <path d="M3.64067 6.20151V11.0189C3.64067 11.3545 3.71688 11.6001 3.86931 11.7559C4.03346 11.8997 4.30314 11.9716 4.67834 11.9716H5.82155V14.0927H4.27383C2.19847 14.0927 1.16079 13.0621 1.16079 11.0009V6.20151H0V4.13434H1.16079V1.67171H3.64067V4.13434H5.82155V6.20151H3.64067Z" fill="#5CBDE3"></path>
  <path d="M12.5523 3.99054C13.291 3.99054 13.9476 4.15831 14.5221 4.49385C15.0967 4.81741 15.5422 5.30274 15.8588 5.94986C16.1871 6.58499 16.3513 7.35194 16.3513 8.25071V14.0927H13.889V8.59224C13.889 7.80132 13.6955 7.19615 13.3086 6.77673C12.9216 6.34532 12.394 6.12961 11.7257 6.12961C11.0456 6.12961 10.5063 6.34532 10.1076 6.77673C9.72067 7.19615 9.52721 7.80132 9.52721 8.59224V14.0927H7.06492V0.790918H9.52721V5.37465C9.84379 4.94324 10.2659 4.6077 10.7935 4.36802C11.3212 4.11637 11.9074 3.99054 12.5523 3.99054Z" fill="#5CBDE3"></path>
  <path d="M27.2228 8.89782C27.2228 9.25733 27.1994 9.58089 27.1525 9.8685H20.0294C20.0881 10.5875 20.3343 11.1507 20.7681 11.5582C21.202 11.9656 21.7354 12.1693 22.3686 12.1693C23.2832 12.1693 23.9339 11.7679 24.3208 10.965H26.9766C26.6952 11.9237 26.1558 12.7146 25.3585 13.3377C24.5612 13.9489 23.5822 14.2545 22.4214 14.2545C21.4834 14.2545 20.6391 14.0448 19.8887 13.6254C19.15 13.1939 18.5697 12.5888 18.1475 11.8098C17.7372 11.0309 17.532 10.1321 17.532 9.11353C17.532 8.08294 17.7372 7.17818 18.1475 6.39924C18.5579 5.62031 19.1325 5.02113 19.8711 4.6017C20.6098 4.18228 21.4599 3.97256 22.4214 3.97256C23.3477 3.97256 24.1743 4.17629 24.9012 4.58373C25.6399 4.99117 26.2086 5.57237 26.6073 6.32734C27.0176 7.07032 27.2228 7.92715 27.2228 8.89782ZM24.6726 8.17881C24.6609 7.53169 24.4322 7.0164 23.9867 6.63292C23.5411 6.23746 22.9959 6.03974 22.351 6.03974C21.7413 6.03974 21.2254 6.23147 20.8033 6.61495C20.3929 6.98644 20.1408 7.50773 20.047 8.17881H24.6726Z" fill="#5CBDE3"></path>
  <path d="M36.6229 6.20151H34.9169V14.0927H32.4195V6.20151H31.3114V4.13434H32.4195V3.63103C32.4195 2.4087 32.7595 1.50993 33.4395 0.934721C34.1196 0.359508 35.1456 0.0898772 36.5174 0.125828V2.24693C35.9194 2.23494 35.5032 2.3368 35.2687 2.55251C35.0342 2.76821 34.9169 3.15768 34.9169 3.72091V4.13434H36.6229V6.20151Z" fill="#5CBDE3"></path>
  <path d="M40.1533 0.790918V14.0927H37.691V0.790918H40.1533Z" fill="#5CBDE3"></path>
  <path d="M46.385 14.2545C45.447 14.2545 44.6027 14.0448 43.8523 13.6254C43.1019 13.1939 42.5098 12.5888 42.076 11.8098C41.6539 11.0309 41.4428 10.1321 41.4428 9.11353C41.4428 8.09492 41.6597 7.19615 42.0936 6.41722C42.5391 5.63829 43.143 5.0391 43.9051 4.61968C44.6672 4.18827 45.5173 3.97256 46.4553 3.97256C47.3933 3.97256 48.2434 4.18827 49.0055 4.61968C49.7677 5.0391 50.3657 5.63829 50.7995 6.41722C51.2451 7.19615 51.4678 8.09492 51.4678 9.11353C51.4678 10.1321 51.2392 11.0309 50.7819 11.8098C50.3363 12.5888 49.7266 13.1939 48.9528 13.6254C48.1906 14.0448 47.3347 14.2545 46.385 14.2545ZM46.385 12.0615C46.8305 12.0615 47.2468 11.9536 47.6337 11.7379C48.0324 11.5103 48.3489 11.1747 48.5834 10.7313C48.8179 10.2879 48.9352 9.74866 48.9352 9.11353C48.9352 8.16683 48.689 7.44182 48.1965 6.93851C47.7158 6.42321 47.1237 6.16556 46.4201 6.16556C45.7166 6.16556 45.1245 6.42321 44.6438 6.93851C44.1748 7.44182 43.9403 8.16683 43.9403 9.11353C43.9403 10.0602 44.1689 10.7912 44.6262 11.3065C45.0952 11.8098 45.6815 12.0615 46.385 12.0615Z" fill="#5CBDE3"></path>
  <path d="M57.073 14.2545C56.135 14.2545 55.2907 14.0448 54.5403 13.6254C53.7899 13.1939 53.1978 12.5888 52.764 11.8098C52.3419 11.0309 52.1308 10.1321 52.1308 9.11353C52.1308 8.09492 52.3477 7.19615 52.7816 6.41722C53.2271 5.63829 53.831 5.0391 54.5931 4.61968C55.3552 4.18827 56.2053 3.97256 57.1433 3.97256C58.0813 3.97256 58.9314 4.18827 59.6935 4.61968C60.4557 5.0391 61.0537 5.63829 61.4875 6.41722C61.9331 7.19615 62.1558 8.09492 62.1558 9.11353C62.1558 10.1321 61.9272 11.0309 61.4699 11.8098C61.0243 12.5888 60.4146 13.1939 59.6408 13.6254C58.8786 14.0448 58.0227 14.2545 57.073 14.2545ZM57.073 12.0615C57.5185 12.0615 57.9348 11.9536 58.3217 11.7379C58.7204 11.5103 59.0369 11.1747 59.2714 10.7313C59.5059 10.2879 59.6232 9.74866 59.6232 9.11353C59.6232 8.16683 59.377 7.44182 58.8845 6.93851C58.4038 6.42321 57.8117 6.16556 57.1081 6.16556C56.4046 6.16556 55.8125 6.42321 55.3318 6.93851C54.8628 7.44182 54.6283 8.16683 54.6283 9.11353C54.6283 10.0602 54.8569 10.7912 55.3142 11.3065C55.7832 11.8098 56.3695 12.0615 57.073 12.0615Z" fill="#5CBDE3"></path>
  <path d="M65.8967 5.68023C66.2132 5.15295 66.6236 4.73951 67.1278 4.43992C67.6437 4.14033 68.23 3.99054 68.8866 3.99054V6.63292H68.2358C67.462 6.63292 66.8757 6.81867 66.4771 7.19016C66.0901 7.56165 65.8967 8.20877 65.8967 9.13151V14.0927H63.4344V4.13434H65.8967V5.68023Z" fill="#5CBDE3"></path>
  <path d="M71.2661 2.94797C70.8323 2.94797 70.4688 2.81016 70.1757 2.53453C69.8943 2.24693 69.7536 1.89341 69.7536 1.47398C69.7536 1.05456 69.8943 0.707033 70.1757 0.43141C70.4688 0.143803 70.8323 0 71.2661 0C71.7 0 72.0576 0.143803 72.339 0.43141C72.6321 0.707033 72.7787 1.05456 72.7787 1.47398C72.7787 1.89341 72.6321 2.24693 72.339 2.53453C72.0576 2.81016 71.7 2.94797 71.2661 2.94797ZM72.4797 4.13434V14.0927H70.0174V4.13434H72.4797Z" fill="#5CBDE3"></path>
  <path d="M79.7843 3.99054C80.9451 3.99054 81.8831 4.36802 82.5983 5.12299C83.3135 5.86597 83.6712 6.90855 83.6712 8.25071V14.0927H81.2089V8.59224C81.2089 7.80132 81.0154 7.19615 80.6285 6.77673C80.2415 6.34532 79.7139 6.12961 79.0456 6.12961C78.3655 6.12961 77.8262 6.34532 77.4275 6.77673C77.0406 7.19615 76.8471 7.80132 76.8471 8.59224V14.0927H74.3848V4.13434H76.8471V5.37465C77.1754 4.94324 77.5917 4.6077 78.0958 4.36802C78.6117 4.11637 79.1745 3.99054 79.7843 3.99054Z" fill="#5CBDE3"></path>
  <path d="M89.3016 3.97256C90.0285 3.97256 90.6675 4.12236 91.2186 4.42195C91.7697 4.70956 92.2035 5.08704 92.5201 5.5544V4.13434H95V14.1646C95 15.0874 94.8183 15.9082 94.4548 16.6272C94.0913 17.3582 93.5461 17.9335 92.8191 18.3529C92.0922 18.7843 91.2128 19 90.181 19C88.7974 19 87.66 18.6705 86.7689 18.0114C85.8895 17.3523 85.3912 16.4535 85.274 15.315H87.7187C87.8476 15.7704 88.1232 16.1299 88.5453 16.3936C88.9791 16.6692 89.5009 16.807 90.1106 16.807C90.8258 16.807 91.4062 16.5853 91.8518 16.1419C92.2974 15.7105 92.5201 15.0514 92.5201 14.1646V12.6187C92.2035 13.0861 91.7639 13.4756 91.201 13.7871C90.65 14.0987 90.0168 14.2545 89.3016 14.2545C88.4808 14.2545 87.7304 14.0388 87.0503 13.6074C86.3703 13.176 85.8309 12.5708 85.4323 11.7919C85.0453 11.0009 84.8519 10.0962 84.8519 9.07758C84.8519 8.07095 85.0453 7.17818 85.4323 6.39924C85.8309 5.62031 86.3644 5.02113 87.0327 4.6017C87.7128 4.18228 88.4691 3.97256 89.3016 3.97256ZM92.5201 9.11353C92.5201 8.50237 92.4029 7.98108 92.1684 7.54967C91.9339 7.10628 91.6173 6.77073 91.2186 6.54305C90.82 6.30337 90.392 6.18354 89.9347 6.18354C89.4774 6.18354 89.0553 6.29738 88.6684 6.52507C88.2815 6.75276 87.9649 7.0883 87.7187 7.53169C87.4842 7.9631 87.3669 8.4784 87.3669 9.07758C87.3669 9.67676 87.4842 10.204 87.7187 10.6594C87.9649 11.1028 88.2815 11.4443 88.6684 11.684C89.0671 11.9237 89.4892 12.0435 89.9347 12.0435C90.392 12.0435 90.82 11.9297 91.2186 11.702C91.6173 11.4623 91.9339 11.1268 92.1684 10.6954C92.4029 10.252 92.5201 9.72469 92.5201 9.11353Z" fill="#5CBDE3"></path>
</svg>
